<svg width="64" height="64" viewBox="0 0 64 64" fill="none" xmlns="http://www.w3.org/2000/svg">
<path d="M31.8724 64H32.1276C44.8377 64 52.2154 62.7203 57.4412 57.6472C62.7697 52.2657 64 44.8389 64 32.179V31.821C64 19.165 62.7697 11.7877 57.4412 6.35277C52.2192 1.2797 44.7882 0 32.1314 0H31.8762C19.1661 0 11.7846 1.2797 6.55883 6.35277C1.23026 11.7344 0 19.165 0 31.821V32.179C0 44.835 1.23026 52.2123 6.55883 57.6472C11.735 62.7203 19.1661 64 31.8724 64Z" fill="#202022"/>
<path d="M25.996 35.7649C27.1797 35.0725 28.6761 35.5288 29.8537 36.2319C30.6149 36.6905 31.4589 36.9199 32.3916 36.9199C33.3173 36.9198 34.1608 36.6905 34.9288 36.2319C36.1004 35.5261 37.5924 35.0724 38.7728 35.7629L42.1241 37.7232C45.3332 39.6003 46.4323 43.9259 43.5252 46.2539C42.8514 46.7935 42.1367 47.291 41.3817 47.7458C38.5457 49.439 35.4311 50.2857 32.0127 50.2857C28.569 50.2857 25.4544 49.439 22.6437 47.7458C22.1126 47.4288 21.602 47.091 21.1118 46.7327C17.9445 44.4179 19.0487 39.8287 22.4309 37.8504L25.996 35.7649ZM31.9998 24.4161C31.9998 25.7104 30.9517 26.7255 29.8537 27.3869C29.0857 27.8454 28.4753 28.4639 28.0228 29.235C27.5702 30.0131 27.3438 30.8684 27.3437 31.8133C27.3438 32.9961 26.9837 34.2798 25.9727 34.8712L22.1183 37.1258C18.6374 39.162 14.0102 37.9147 13.5204 33.8727C13.4238 33.0758 13.3755 32.2615 13.3755 31.4294C13.3755 27.9404 14.2112 24.785 15.8824 21.9117C17.5536 19.064 19.8076 16.78 22.6437 15.0868C23.3863 14.6394 24.1502 14.2512 24.9357 13.9221C28.6301 12.3744 31.9998 15.8325 31.9998 19.8829V24.4161ZM32.7758 20.0177C32.7758 15.9461 36.2474 12.549 39.8832 14.2835C40.3912 14.5258 40.8906 14.7936 41.3817 15.0868C44.1925 16.78 46.446 19.064 48.1173 21.9117C49.7884 24.785 50.6241 27.9404 50.6242 31.4294C50.6242 32.2274 50.5797 33.0091 50.4908 33.7747C50.0427 37.6342 45.6444 38.8742 42.3225 36.9313L38.8024 34.8724C37.7909 34.2808 37.4319 32.9966 37.4319 31.8133C37.4319 30.8684 37.2055 30.0131 36.7529 29.235C36.3003 28.4639 35.6899 27.8454 34.9288 27.3869C33.8253 26.7281 32.7758 25.7074 32.7758 24.4098V20.0177Z" fill="white"/>
</svg>
